<svg xmlns="http://www.w3.org/2000/svg" xmlns:xlink="http://www.w3.org/1999/xlink" width="1920" zoomAndPan="magnify" viewBox="0 0 1440 809.999993" height="1080" preserveAspectRatio="xMidYMid meet" version="1.0"><defs><clipPath id="7889c1156a"><path d="M 281.578125 93 L 811 93 L 811 719 L 281.578125 719 Z M 281.578125 93 " clip-rule="nonzero"/></clipPath><clipPath id="a175840350"><path d="M 823 29.320312 L 997 29.320312 L 997 187 L 823 187 Z M 823 29.320312 " clip-rule="nonzero"/></clipPath><clipPath id="f3dd575630"><path d="M 1102 367 L 1237.078125 367 L 1237.078125 503 L 1102 503 Z M 1102 367 " clip-rule="nonzero"/></clipPath></defs><rect x="-144" width="1728" fill="#ffffff" y="-80.999999" height="971.999992" fill-opacity="1"/><rect x="-144" width="1728" fill="#ffffff" y="-80.999999" height="971.999992" fill-opacity="1"/><path fill="#e3e3e3" d="M 638.964844 476.164062 L 365.003906 476.164062 C 354.207031 476.164062 345.433594 467.390625 345.433594 456.59375 L 345.433594 139.402344 C 345.433594 128.601562 354.207031 119.828125 365.003906 119.828125 L 638.964844 119.828125 C 649.757812 119.828125 658.53125 128.601562 658.53125 139.402344 L 658.53125 456.59375 C 658.53125 467.390625 649.742188 476.164062 638.964844 476.164062 Z M 365.003906 124.253906 C 356.644531 124.253906 349.859375 131.058594 349.859375 139.402344 L 349.859375 456.59375 C 349.859375 464.953125 356.660156 471.742188 365.003906 471.742188 L 638.964844 471.742188 C 647.324219 471.742188 654.109375 464.933594 654.109375 456.59375 L 654.109375 139.402344 C 654.109375 131.039062 647.304688 124.253906 638.964844 124.253906 Z M 365.003906 124.253906 " fill-opacity="1" fill-rule="nonzero"/><path fill="#e3e3e3" d="M 542.34375 201.910156 C 542.34375 203.230469 542.28125 204.550781 542.152344 205.867188 C 542.019531 207.183594 541.828125 208.492188 541.570312 209.789062 C 541.3125 211.085938 540.992188 212.367188 540.605469 213.632812 C 540.222656 214.898438 539.777344 216.140625 539.273438 217.363281 C 538.765625 218.585938 538.203125 219.78125 537.578125 220.945312 C 536.957031 222.113281 536.277344 223.246094 535.542969 224.347656 C 534.808594 225.445312 534.019531 226.507812 533.179688 227.527344 C 532.34375 228.550781 531.457031 229.53125 530.519531 230.464844 C 529.585938 231.402344 528.605469 232.289062 527.585938 233.128906 C 526.5625 233.964844 525.503906 234.753906 524.402344 235.488281 C 523.304688 236.222656 522.171875 236.902344 521.003906 237.527344 C 519.839844 238.148438 518.644531 238.714844 517.421875 239.21875 C 516.203125 239.726562 514.957031 240.171875 513.691406 240.554688 C 512.429688 240.9375 511.148438 241.261719 509.851562 241.519531 C 508.554688 241.777344 507.246094 241.96875 505.929688 242.101562 C 504.613281 242.230469 503.296875 242.292969 501.972656 242.292969 C 500.652344 242.292969 499.332031 242.230469 498.015625 242.101562 C 496.699219 241.96875 495.394531 241.777344 494.097656 241.519531 C 492.800781 241.261719 491.519531 240.9375 490.253906 240.554688 C 488.988281 240.171875 487.746094 239.726562 486.523438 239.21875 C 485.300781 238.714844 484.109375 238.148438 482.941406 237.527344 C 481.777344 236.902344 480.644531 236.222656 479.542969 235.488281 C 478.445312 234.753906 477.382812 233.964844 476.363281 233.128906 C 475.339844 232.289062 474.363281 231.402344 473.425781 230.464844 C 472.492188 229.53125 471.605469 228.550781 470.765625 227.527344 C 469.925781 226.507812 469.140625 225.445312 468.40625 224.347656 C 467.671875 223.246094 466.992188 222.113281 466.371094 220.945312 C 465.746094 219.78125 465.179688 218.585938 464.675781 217.363281 C 464.167969 216.140625 463.722656 214.898438 463.339844 213.632812 C 462.957031 212.367188 462.636719 211.085938 462.378906 209.789062 C 462.121094 208.492188 461.925781 207.183594 461.796875 205.867188 C 461.667969 204.550781 461.601562 203.230469 461.601562 201.910156 C 461.601562 200.585938 461.667969 199.265625 461.796875 197.949219 C 461.925781 196.632812 462.121094 195.328125 462.378906 194.03125 C 462.636719 192.734375 462.957031 191.453125 463.339844 190.1875 C 463.722656 188.921875 464.167969 187.675781 464.675781 186.453125 C 465.179688 185.234375 465.746094 184.039062 466.371094 182.871094 C 466.992188 181.707031 467.671875 180.574219 468.40625 179.472656 C 469.140625 178.371094 469.925781 177.3125 470.765625 176.289062 C 471.605469 175.265625 472.492188 174.289062 473.425781 173.351562 C 474.363281 172.417969 475.339844 171.53125 476.363281 170.691406 C 477.382812 169.851562 478.445312 169.066406 479.542969 168.332031 C 480.644531 167.597656 481.777344 166.917969 482.941406 166.292969 C 484.109375 165.667969 485.300781 165.105469 486.523438 164.597656 C 487.746094 164.09375 488.988281 163.648438 490.253906 163.261719 C 491.519531 162.878906 492.800781 162.558594 494.097656 162.300781 C 495.394531 162.042969 496.699219 161.847656 498.015625 161.71875 C 499.332031 161.589844 500.652344 161.523438 501.972656 161.523438 C 503.296875 161.523438 504.613281 161.589844 505.929688 161.71875 C 507.246094 161.847656 508.554688 162.042969 509.851562 162.300781 C 511.148438 162.558594 512.429688 162.878906 513.691406 163.261719 C 514.957031 163.648438 516.203125 164.09375 517.421875 164.597656 C 518.644531 165.105469 519.839844 165.667969 521.003906 166.292969 C 522.171875 166.917969 523.304688 167.597656 524.402344 168.332031 C 525.503906 169.066406 526.5625 169.851562 527.585938 170.691406 C 528.605469 171.53125 529.585938 172.417969 530.519531 173.351562 C 531.457031 174.289062 532.34375 175.265625 533.179688 176.289062 C 534.019531 177.3125 534.808594 178.371094 535.542969 179.472656 C 536.277344 180.574219 536.957031 181.707031 537.578125 182.871094 C 538.203125 184.039062 538.765625 185.234375 539.273438 186.453125 C 539.777344 187.675781 540.222656 188.921875 540.605469 190.1875 C 540.992188 191.453125 541.3125 192.734375 541.570312 194.03125 C 541.828125 195.328125 542.019531 196.632812 542.152344 197.949219 C 542.28125 199.265625 542.34375 200.585938 542.34375 201.910156 Z M 542.34375 201.910156 " fill-opacity="1" fill-rule="nonzero"/><path fill="#e3e3e3" d="M 568.230469 304.351562 L 435.71875 304.351562 L 435.71875 270.171875 C 435.71875 258.980469 444.789062 249.925781 455.960938 249.925781 L 547.96875 249.925781 C 559.15625 249.925781 568.210938 259 568.210938 270.171875 L 568.210938 304.351562 Z M 568.230469 304.351562 " fill-opacity="1" fill-rule="nonzero"/><path fill="#e3e3e3" d="M 387.210938 331.164062 L 616.753906 331.164062 L 616.753906 340.96875 L 387.210938 340.96875 Z M 387.210938 331.164062 " fill-opacity="1" fill-rule="nonzero"/><path fill="#e3e3e3" d="M 387.210938 365.191406 L 616.753906 365.191406 L 616.753906 374.996094 L 387.210938 374.996094 Z M 387.210938 365.191406 " fill-opacity="1" fill-rule="nonzero"/><path fill="#e3e3e3" d="M 387.210938 403.777344 L 616.753906 403.777344 L 616.753906 413.582031 L 387.210938 413.582031 Z M 387.210938 403.777344 " fill-opacity="1" fill-rule="nonzero"/><path fill="#e3e3e3" d="M 410.601562 520.527344 C 409.535156 520.527344 408.578125 519.738281 408.429688 518.632812 C 407.625 513.214844 407.003906 510.0625 407.003906 510.046875 C 406.761719 508.84375 407.546875 507.683594 408.730469 507.457031 C 409.929688 507.214844 411.089844 508 411.316406 509.183594 C 411.335938 509.3125 411.972656 512.464844 412.777344 517.996094 C 412.964844 519.195312 412.121094 520.320312 410.921875 520.507812 C 410.808594 520.507812 410.695312 520.527344 410.601562 520.527344 Z M 410.601562 520.527344 " fill-opacity="1" fill-rule="nonzero"/><g clip-path="url(#7889c1156a)"><path fill="#e3e3e3" d="M 317.921875 718.792969 C 316.964844 718.792969 316.007812 718.773438 315.089844 718.71875 C 313.871094 718.644531 312.953125 717.613281 313.011719 716.394531 C 313.066406 715.175781 314.117188 714.257812 315.335938 714.3125 C 320.488281 714.613281 326.261719 713.992188 332.296875 712.476562 C 333.476562 712.175781 334.675781 712.886719 334.976562 714.085938 C 335.277344 715.269531 334.546875 716.46875 333.363281 716.769531 C 327.96875 718.101562 322.773438 718.792969 317.921875 718.792969 Z M 298.296875 713.789062 C 297.902344 713.789062 297.511719 713.695312 297.152344 713.46875 C 291.644531 710.132812 287.332031 705.257812 284.671875 699.371094 C 284.164062 698.261719 284.671875 696.949219 285.777344 696.445312 C 286.882812 695.9375 288.195312 696.445312 288.703125 697.550781 C 290.988281 702.632812 294.699219 706.8125 299.441406 709.679688 C 300.492188 710.320312 300.808594 711.667969 300.191406 712.71875 C 299.777344 713.414062 299.046875 713.789062 298.296875 713.789062 Z M 349.558594 710.789062 C 348.714844 710.789062 347.929688 710.320312 347.554688 709.492188 C 347.046875 708.386719 347.535156 707.074219 348.640625 706.570312 L 349.089844 706.363281 C 354.226562 703.964844 359.097656 701.09375 363.617188 697.851562 C 364.609375 697.136719 365.976562 697.363281 366.6875 698.355469 C 367.402344 699.351562 367.175781 700.71875 366.183594 701.433594 C 361.441406 704.84375 356.324219 707.84375 350.945312 710.355469 L 350.457031 710.582031 C 350.175781 710.710938 349.859375 710.789062 349.558594 710.789062 Z M 378.253906 690.125 C 377.710938 690.125 377.167969 689.921875 376.734375 689.527344 C 375.855469 688.683594 375.796875 687.296875 376.640625 686.394531 C 380.519531 682.269531 384.140625 677.675781 387.382812 672.726562 C 388.054688 671.695312 389.425781 671.414062 390.4375 672.089844 C 391.449219 672.765625 391.730469 674.132812 391.074219 675.144531 C 387.679688 680.300781 383.914062 685.101562 379.847656 689.414062 C 379.414062 689.902344 378.835938 690.125 378.253906 690.125 Z M 283.921875 683.285156 C 283.867188 683.285156 283.789062 683.285156 283.734375 683.285156 C 282.515625 683.191406 281.617188 682.121094 281.710938 680.902344 C 282.214844 674.921875 283.941406 668.921875 286.882812 663.109375 C 287.425781 662.023438 288.757812 661.589844 289.84375 662.136719 C 290.929688 662.679688 291.363281 664.007812 290.820312 665.097656 C 288.140625 670.402344 286.566406 675.859375 286.097656 681.277344 C 286.019531 682.402344 285.066406 683.285156 283.921875 683.285156 Z M 397.839844 660.597656 C 397.519531 660.597656 397.222656 660.523438 396.921875 660.390625 C 395.816406 659.886719 395.328125 658.574219 395.851562 657.464844 C 398.214844 652.367188 400.351562 646.875 402.207031 641.136719 C 402.582031 639.972656 403.835938 639.335938 404.980469 639.710938 C 406.144531 640.085938 406.78125 641.324219 406.40625 642.484375 C 404.492188 648.390625 402.28125 654.054688 399.84375 659.324219 C 399.46875 660.128906 398.664062 660.597656 397.839844 660.597656 Z M 299.214844 651.898438 C 298.671875 651.898438 298.109375 651.691406 297.679688 651.28125 C 296.796875 650.4375 296.78125 649.03125 297.621094 648.148438 C 301.707031 643.910156 306.507812 640.066406 311.867188 636.691406 C 312.898438 636.054688 314.265625 636.355469 314.902344 637.386719 C 315.558594 638.417969 315.242188 639.785156 314.210938 640.421875 C 309.148438 643.609375 304.632812 647.230469 300.789062 651.203125 C 300.359375 651.671875 299.777344 651.898438 299.214844 651.898438 Z M 328.960938 632.886719 C 328.078125 632.886719 327.234375 632.34375 326.898438 631.480469 C 326.46875 630.335938 327.03125 629.0625 328.171875 628.628906 C 333.589844 626.550781 339.4375 624.824219 345.546875 623.492188 C 346.746094 623.230469 347.910156 624 348.171875 625.179688 C 348.433594 626.382812 347.664062 627.542969 346.484375 627.804688 C 340.601562 629.082031 334.976562 630.730469 329.765625 632.738281 C 329.484375 632.847656 329.222656 632.886719 328.960938 632.886719 Z M 408.917969 626.832031 C 408.765625 626.832031 408.597656 626.8125 408.449219 626.773438 C 407.398438 626.550781 406.6875 625.613281 406.703125 624.582031 C 404.15625 624.769531 401.664062 624.898438 399.207031 624.957031 C 397.933594 624.957031 396.976562 624.019531 396.941406 622.800781 C 396.902344 621.582031 397.878906 620.570312 399.09375 620.53125 C 401.851562 620.457031 404.699219 620.304688 407.585938 620.082031 C 408.429688 615.769531 409.160156 611.308594 409.777344 606.769531 C 409.949219 605.550781 411.070312 604.726562 412.253906 604.875 C 413.453125 605.042969 414.3125 606.152344 414.144531 607.351562 C 413.582031 611.53125 412.925781 615.636719 412.160156 619.632812 C 413.621094 619.480469 415.101562 619.292969 416.582031 619.105469 C 417.78125 618.957031 418.90625 619.800781 419.054688 621 C 419.207031 622.199219 418.363281 623.324219 417.164062 623.476562 C 415.175781 623.738281 413.207031 623.960938 411.257812 624.167969 C 411.203125 624.46875 411.128906 624.769531 411.070312 625.070312 C 410.847656 626.117188 409.929688 626.832031 408.917969 626.832031 Z M 363.578125 625.238281 C 362.453125 625.238281 361.480469 624.375 361.386719 623.230469 C 361.273438 622.011719 362.171875 620.945312 363.390625 620.832031 C 369.164062 620.324219 375.179688 620.082031 381.382812 620.175781 C 382.601562 620.195312 383.578125 621.1875 383.558594 622.40625 C 383.539062 623.605469 382.5625 624.582031 381.347656 624.582031 C 381.328125 624.582031 381.328125 624.582031 381.308594 624.582031 C 375.253906 624.523438 369.386719 624.710938 363.765625 625.21875 C 363.710938 625.238281 363.652344 625.238281 363.578125 625.238281 Z M 434.40625 620.398438 C 433.394531 620.398438 432.476562 619.6875 432.25 618.675781 C 431.988281 617.492188 432.738281 616.3125 433.9375 616.050781 C 439.484375 614.832031 445.238281 613.351562 451.03125 611.644531 C 452.191406 611.308594 453.429688 611.964844 453.769531 613.144531 C 454.105469 614.324219 453.449219 615.542969 452.269531 615.882812 C 446.363281 617.605469 440.515625 619.125 434.875 620.363281 C 434.726562 620.382812 434.554688 620.398438 434.40625 620.398438 Z M 468.574219 610.425781 C 467.675781 610.425781 466.8125 609.863281 466.492188 608.964844 C 466.082031 607.820312 466.679688 606.542969 467.824219 606.132812 C 473.222656 604.199219 478.789062 602.046875 484.335938 599.738281 C 485.460938 599.269531 486.753906 599.796875 487.222656 600.9375 C 487.691406 602.0625 487.148438 603.359375 486.023438 603.828125 C 480.402344 606.167969 474.777344 608.34375 469.304688 610.292969 C 469.082031 610.371094 468.816406 610.425781 468.574219 610.425781 Z M 501.488281 596.777344 C 500.660156 596.777344 499.855469 596.308594 499.480469 595.5 C 498.957031 594.394531 499.445312 593.082031 500.550781 592.558594 C 505.796875 590.101562 511.15625 587.457031 516.441406 584.722656 C 517.53125 584.160156 518.859375 584.589844 519.421875 585.660156 C 519.984375 586.746094 519.554688 588.078125 518.46875 588.640625 C 513.125 591.414062 507.710938 594.078125 502.40625 596.550781 C 502.105469 596.71875 501.785156 596.777344 501.488281 596.777344 Z M 413.714844 591.566406 C 413.660156 591.566406 413.621094 591.566406 413.566406 591.566406 C 412.347656 591.488281 411.429688 590.441406 411.503906 589.222656 C 411.878906 583.484375 412.085938 577.539062 412.121094 571.539062 C 412.121094 570.320312 413.113281 569.347656 414.332031 569.347656 C 414.332031 569.347656 414.332031 569.347656 414.351562 569.347656 C 415.570312 569.347656 416.542969 570.359375 416.542969 571.578125 C 416.507812 577.652344 416.300781 583.691406 415.90625 589.503906 C 415.832031 590.664062 414.859375 591.566406 413.714844 591.566406 Z M 533.125 580.429688 C 532.355469 580.429688 531.605469 580.015625 531.195312 579.304688 C 530.59375 578.234375 530.96875 576.882812 532.035156 576.304688 C 537.097656 573.453125 542.234375 570.433594 547.351562 567.324219 C 548.398438 566.683594 549.75 567.023438 550.386719 568.054688 C 551.023438 569.101562 550.6875 570.453125 549.65625 571.089844 C 544.5 574.222656 539.308594 577.257812 534.230469 580.144531 C 533.875 580.335938 533.5 580.429688 533.125 580.429688 Z M 563.582031 561.921875 C 562.867188 561.921875 562.15625 561.566406 561.726562 560.929688 C 561.070312 559.917969 561.351562 558.546875 562.363281 557.871094 C 567.253906 554.6875 572.203125 551.347656 577.074219 547.953125 C 578.070312 547.261719 579.457031 547.503906 580.148438 548.5 C 580.84375 549.492188 580.597656 550.878906 579.605469 551.574219 C 574.695312 554.984375 569.710938 558.359375 564.78125 561.566406 C 564.40625 561.792969 563.992188 561.921875 563.582031 561.921875 Z M 413.976562 555.960938 C 412.796875 555.960938 411.820312 555.042969 411.765625 553.859375 C 411.503906 548.03125 411.089844 542.085938 410.527344 536.199219 C 410.414062 534.980469 411.296875 533.910156 412.515625 533.800781 C 413.734375 533.667969 414.800781 534.566406 414.914062 535.785156 C 415.476562 541.730469 415.90625 547.75 416.171875 553.65625 C 416.226562 554.875 415.289062 555.90625 414.070312 555.960938 C 414.050781 555.960938 414.015625 555.960938 413.976562 555.960938 Z M 592.820312 541.5625 C 592.144531 541.5625 591.46875 541.242188 591.039062 540.660156 C 590.308594 539.6875 590.515625 538.300781 591.507812 537.566406 C 596.230469 534.082031 600.972656 530.460938 605.621094 526.804688 C 606.578125 526.054688 607.964844 526.226562 608.714844 527.179688 C 609.460938 528.136719 609.292969 529.523438 608.339844 530.273438 C 603.652344 533.949219 598.875 537.605469 594.113281 541.113281 C 593.738281 541.410156 593.269531 541.5625 592.820312 541.5625 Z M 620.800781 519.589844 C 620.164062 519.589844 619.546875 519.308594 619.097656 518.800781 C 618.308594 517.863281 618.441406 516.476562 619.378906 515.6875 C 623.894531 511.9375 628.429688 508.058594 632.855469 504.15625 C 633.773438 503.351562 635.160156 503.445312 635.964844 504.363281 C 636.769531 505.28125 636.675781 506.671875 635.757812 507.476562 C 631.296875 511.394531 626.742188 515.3125 622.1875 519.082031 C 621.8125 519.417969 621.308594 519.589844 620.800781 519.589844 Z M 647.546875 496.058594 C 646.949219 496.058594 646.367188 495.816406 645.9375 495.347656 C 645.109375 494.445312 645.148438 493.058594 646.046875 492.234375 C 650.398438 488.183594 654.726562 484.039062 658.886719 479.914062 C 659.75 479.054688 661.15625 479.070312 662.015625 479.933594 C 662.878906 480.796875 662.859375 482.203125 662 483.066406 C 657.800781 487.207031 653.453125 491.371094 649.066406 495.457031 C 648.617188 495.851562 648.074219 496.058594 647.546875 496.058594 Z M 672.90625 470.992188 C 672.363281 470.992188 671.820312 470.785156 671.386719 470.371094 C 670.507812 469.527344 670.46875 468.140625 671.3125 467.242188 C 675.417969 462.949219 679.464844 458.5625 683.363281 454.210938 C 684.171875 453.3125 685.578125 453.234375 686.476562 454.042969 C 687.375 454.847656 687.449219 456.253906 686.644531 457.15625 C 682.710938 461.542969 678.625 465.964844 674.5 470.277344 C 674.070312 470.765625 673.488281 470.992188 672.90625 470.992188 Z M 696.691406 444.460938 C 696.183594 444.460938 695.679688 444.292969 695.265625 443.9375 C 694.328125 443.148438 694.21875 441.761719 695.003906 440.824219 C 698.828125 436.269531 702.59375 431.636719 706.175781 427.042969 C 706.925781 426.089844 708.3125 425.917969 709.265625 426.667969 C 710.222656 427.417969 710.390625 428.808594 709.640625 429.761719 C 706.023438 434.375 702.238281 439.0625 698.378906 443.65625 C 697.945312 444.199219 697.328125 444.460938 696.691406 444.460938 Z M 718.640625 416.394531 C 718.1875 416.394531 717.738281 416.265625 717.34375 415.984375 C 716.351562 415.269531 716.144531 413.882812 716.859375 412.90625 C 720.363281 408.070312 723.773438 403.175781 726.980469 398.359375 C 727.652344 397.347656 729.023438 397.066406 730.035156 397.738281 C 731.046875 398.414062 731.328125 399.785156 730.652344 400.796875 C 727.410156 405.652344 723.960938 410.601562 720.417969 415.496094 C 720.007812 416.09375 719.332031 416.394531 718.640625 416.394531 Z M 738.375 386.753906 C 737.980469 386.753906 737.585938 386.640625 737.230469 386.433594 C 736.183594 385.796875 735.863281 384.445312 736.480469 383.398438 C 739.574219 378.277344 742.554688 373.121094 745.308594 368.042969 C 745.890625 366.972656 747.238281 366.578125 748.308594 367.160156 C 749.375 367.742188 749.769531 369.074219 749.1875 370.160156 C 746.398438 375.296875 743.398438 380.527344 740.269531 385.683594 C 739.855469 386.378906 739.125 386.753906 738.375 386.753906 Z M 755.355469 355.460938 C 755.035156 355.460938 754.71875 355.386719 754.398438 355.238281 C 753.292969 354.710938 752.824219 353.398438 753.351562 352.292969 C 755.917969 346.914062 758.316406 341.476562 760.492188 336.132812 C 760.960938 335.007812 762.234375 334.464844 763.378906 334.914062 C 764.503906 335.382812 765.046875 336.65625 764.59375 337.78125 C 762.382812 343.199219 759.949219 348.710938 757.34375 354.1875 C 756.96875 354.992188 756.160156 355.460938 755.355469 355.460938 Z M 768.71875 322.484375 C 768.496094 322.484375 768.25 322.445312 768.027344 322.371094 C 766.863281 321.976562 766.246094 320.738281 766.621094 319.578125 C 768.496094 313.914062 770.164062 308.234375 771.566406 302.664062 C 771.867188 301.484375 773.085938 300.773438 774.25 301.070312 C 775.429688 301.371094 776.140625 302.570312 775.839844 303.753906 C 774.417969 309.433594 772.710938 315.226562 770.800781 320.984375 C 770.519531 321.902344 769.65625 322.484375 768.71875 322.484375 Z M 777.339844 288.003906 C 777.226562 288.003906 777.097656 288.003906 776.984375 287.964844 C 775.785156 287.777344 774.960938 286.636719 775.167969 285.433594 C 776.121094 279.566406 776.816406 273.699219 777.191406 267.980469 C 777.265625 266.761719 778.351562 265.859375 779.535156 265.917969 C 780.75 265.992188 781.671875 267.0625 781.59375 268.261719 C 781.203125 274.109375 780.507812 280.109375 779.515625 286.128906 C 779.347656 287.234375 778.410156 288.003906 777.339844 288.003906 Z M 779.664062 252.550781 C 778.484375 252.550781 777.492188 251.613281 777.453125 250.414062 L 777.433594 250.113281 C 777.191406 244.113281 777.023438 238.226562 776.945312 232.582031 C 776.929688 231.363281 777.902344 230.351562 779.121094 230.351562 C 780.285156 230.3125 781.351562 231.308594 781.351562 232.527344 C 781.425781 238.132812 781.59375 243.980469 781.839844 249.925781 L 781.859375 250.28125 C 781.894531 251.5 780.9375 252.511719 779.722656 252.550781 C 779.722656 252.550781 779.683594 252.550781 779.664062 252.550781 Z M 779.160156 216.945312 C 779.140625 216.945312 779.140625 216.945312 779.121094 216.945312 C 777.902344 216.925781 776.929688 215.933594 776.945312 214.695312 C 777.039062 208.566406 777.246094 202.546875 777.546875 196.828125 C 777.601562 195.609375 778.578125 194.691406 779.871094 194.746094 C 781.089844 194.804688 782.027344 195.855469 781.953125 197.070312 C 781.652344 202.753906 781.464844 208.695312 781.371094 214.769531 C 781.351562 215.988281 780.359375 216.945312 779.160156 216.945312 Z M 781.050781 181.417969 C 780.976562 181.417969 780.902344 181.417969 780.84375 181.398438 C 779.628906 181.285156 778.746094 180.199219 778.859375 178.980469 C 779.457031 172.792969 780.207031 166.8125 781.070312 161.207031 C 781.257812 160.007812 782.382812 159.179688 783.582031 159.367188 C 784.78125 159.554688 785.605469 160.679688 785.417969 161.878906 C 784.558594 167.410156 783.824219 173.316406 783.246094 179.410156 C 783.132812 180.554688 782.175781 181.417969 781.050781 181.417969 Z M 786.582031 146.28125 C 786.414062 146.28125 786.242188 146.261719 786.074219 146.226562 C 784.894531 145.945312 784.144531 144.761719 784.425781 143.582031 C 785.851562 137.414062 787.5 131.582031 789.335938 126.257812 C 789.730469 125.097656 790.984375 124.496094 792.148438 124.890625 C 793.308594 125.285156 793.910156 126.539062 793.515625 127.703125 C 791.734375 132.894531 790.125 138.574219 788.734375 144.59375 C 788.492188 145.589844 787.59375 146.28125 786.582031 146.28125 Z M 798.371094 112.816406 C 798.03125 112.816406 797.675781 112.742188 797.339844 112.554688 C 796.253906 111.992188 795.839844 110.660156 796.421875 109.570312 C 799.496094 103.703125 802.960938 98.621094 806.691406 94.441406 C 807.496094 93.542969 808.902344 93.449219 809.804688 94.273438 C 810.703125 95.078125 810.796875 96.484375 809.972656 97.386719 C 806.484375 101.285156 803.222656 106.085938 800.320312 111.617188 C 799.925781 112.382812 799.175781 112.816406 798.371094 112.816406 Z M 798.371094 112.816406 " fill-opacity="1" fill-rule="nonzero"/></g><path fill="#e3e3e3" d="M 822.546875 87.410156 C 821.6875 87.410156 820.878906 86.90625 820.523438 86.078125 C 820.035156 84.953125 820.5625 83.660156 821.667969 83.171875 C 827.160156 80.792969 831 80.90625 831.152344 80.921875 C 832.367188 80.980469 833.324219 81.992188 833.269531 83.210938 C 833.210938 84.429688 832.183594 85.40625 830.980469 85.328125 C 830.945312 85.347656 827.910156 85.273438 823.429688 87.222656 C 823.148438 87.355469 822.847656 87.410156 822.546875 87.410156 Z M 822.546875 87.410156 " fill-opacity="1" fill-rule="nonzero"/><path fill="#2e2d40" d="M 735.46875 169.136719 L 736.652344 190.339844 L 749.375 285.621094 L 760.304688 276.417969 Z M 735.46875 169.136719 " fill-opacity="1" fill-rule="nonzero"/><path fill="#2e2d40" d="M 571.339844 113.789062 C 571.339844 113.789062 539.984375 140.917969 559.082031 210.796875 C 570.253906 251.613281 519.21875 290.441406 554.433594 325.089844 C 595.144531 365.117188 681.117188 302.816406 681.117188 302.816406 L 668.820312 212.503906 L 633.304688 128.65625 Z M 571.339844 113.789062 " fill-opacity="1" fill-rule="nonzero"/><path fill="#2e2d40" d="M 671.183594 86.511719 C 671.183594 86.511719 748.925781 35.570312 761.203125 204.179688 C 764.109375 244.113281 811.472656 255.457031 803.054688 303.019531 C 794.640625 350.585938 673.488281 306.921875 671.445312 306.527344 C 669.402344 306.132812 677.386719 268.917969 679.316406 263.332031 C 681.210938 257.742188 671.183594 86.511719 671.183594 86.511719 Z M 671.183594 86.511719 " fill-opacity="1" fill-rule="nonzero"/><path fill="#f9acb2" d="M 718.394531 305.609375 C 718.394531 305.609375 736.351562 364.046875 741.578125 372.671875 C 746.808594 381.296875 666.628906 384.804688 649.328125 381.878906 C 632.027344 378.933594 624.550781 366.542969 624.550781 366.542969 C 624.550781 366.542969 639.078125 305.140625 629.40625 280.785156 C 619.734375 256.429688 718.394531 305.609375 718.394531 305.609375 Z M 718.394531 305.609375 " fill-opacity="1" fill-rule="nonzero"/><path fill="#f9acb2" d="M 703.34375 317.984375 C 670 327.09375 636.488281 295.148438 618.910156 262.449219 C 601.328125 229.75 571.285156 107.640625 646.011719 92.996094 C 720.738281 78.355469 737.738281 158.75 743.679688 195.328125 C 749.621094 231.90625 748.496094 305.644531 703.34375 317.984375 Z M 703.34375 317.984375 " fill-opacity="1" fill-rule="nonzero"/><path fill="#2e2d40" d="M 691.722656 320.53125 C 679.148438 320.53125 665.277344 315.769531 651.558594 306.601562 C 651.089844 306.285156 650.960938 305.644531 651.277344 305.160156 C 651.597656 304.691406 652.234375 304.558594 652.722656 304.878906 C 670.433594 316.707031 688.3125 321.019531 703.082031 316.988281 C 708.125 315.601562 712.808594 313.371094 717.007812 310.332031 C 717.476562 309.996094 718.113281 310.109375 718.453125 310.558594 C 718.789062 311.027344 718.675781 311.664062 718.226562 312.003906 C 713.839844 315.171875 708.929688 317.53125 703.625 318.976562 C 699.820312 320.027344 695.847656 320.53125 691.722656 320.53125 Z M 691.722656 320.53125 " fill-opacity="1" fill-rule="nonzero"/><path fill="#2e2d40" d="M 720.789062 217.550781 C 720.867188 218.007812 720.90625 218.464844 720.90625 218.925781 C 720.90625 219.382812 720.871094 219.835938 720.796875 220.277344 C 720.722656 220.722656 720.613281 221.152344 720.464844 221.566406 C 720.320312 221.980469 720.140625 222.371094 719.929688 222.734375 C 719.714844 223.101562 719.472656 223.4375 719.203125 223.742188 C 718.933594 224.046875 718.636719 224.316406 718.320312 224.550781 C 718 224.78125 717.664062 224.972656 717.308594 225.121094 C 716.957031 225.273438 716.589844 225.378906 716.214844 225.441406 C 715.835938 225.503906 715.457031 225.523438 715.074219 225.496094 C 714.6875 225.46875 714.308594 225.394531 713.933594 225.28125 C 713.554688 225.164062 713.191406 225.003906 712.835938 224.804688 C 712.480469 224.601562 712.144531 224.363281 711.824219 224.085938 C 711.503906 223.808594 711.207031 223.496094 710.933594 223.152344 C 710.664062 222.808594 710.421875 222.4375 710.207031 222.042969 C 709.992188 221.644531 709.8125 221.230469 709.664062 220.796875 C 709.515625 220.363281 709.402344 219.917969 709.328125 219.460938 C 709.253906 219.007812 709.214844 218.550781 709.214844 218.089844 C 709.210938 217.632812 709.25 217.179688 709.324219 216.734375 C 709.398438 216.289062 709.507812 215.859375 709.652344 215.449219 C 709.800781 215.035156 709.976562 214.644531 710.191406 214.277344 C 710.402344 213.910156 710.644531 213.574219 710.914062 213.269531 C 711.1875 212.964844 711.480469 212.695312 711.800781 212.464844 C 712.117188 212.234375 712.457031 212.042969 712.808594 211.890625 C 713.164062 211.742188 713.527344 211.632812 713.90625 211.570312 C 714.28125 211.507812 714.660156 211.492188 715.046875 211.519531 C 715.429688 211.546875 715.808594 211.617188 716.1875 211.734375 C 716.5625 211.851562 716.929688 212.007812 717.285156 212.210938 C 717.640625 212.410156 717.976562 212.652344 718.296875 212.929688 C 718.617188 213.207031 718.910156 213.515625 719.183594 213.859375 C 719.457031 214.203125 719.699219 214.574219 719.914062 214.972656 C 720.125 215.367188 720.308594 215.785156 720.457031 216.21875 C 720.601562 216.652344 720.714844 217.097656 720.789062 217.550781 Z M 720.789062 217.550781 " fill-opacity="1" fill-rule="nonzero"/><path fill="#2e2d40" d="M 698.902344 259.957031 C 698.433594 259.957031 698.003906 259.636719 697.890625 259.148438 C 697.757812 258.585938 698.117188 258.042969 698.679688 257.910156 L 700.363281 257.519531 C 701.769531 257.199219 702.933594 256.28125 703.570312 254.988281 C 704.207031 253.695312 704.226562 252.210938 703.625 250.898438 L 700.121094 243.289062 C 699.878906 242.761719 700.101562 242.144531 700.628906 241.917969 C 701.152344 241.675781 701.769531 241.902344 701.996094 242.425781 L 705.5 250.039062 C 706.363281 251.914062 706.34375 254.066406 705.425781 255.90625 C 704.507812 257.742188 702.820312 259.09375 700.8125 259.542969 L 699.128906 259.9375 C 699.050781 259.957031 698.976562 259.957031 698.902344 259.957031 Z M 698.902344 259.957031 " fill-opacity="1" fill-rule="nonzero"/><path fill="#ffffff" d="M 705.070312 278.574219 C 704.957031 279.640625 704.542969 281.046875 703.871094 282.472656 C 702.539062 285.359375 700.175781 288.417969 697.308594 289.335938 C 695.339844 289.972656 692.71875 289.652344 690.261719 288.847656 C 687.019531 287.761719 684.003906 285.867188 682.765625 284.160156 C 682.222656 283.429688 682.054688 282.679688 682.351562 282.136719 C 683.722656 279.753906 689.886719 280.054688 693.636719 279.433594 C 697.402344 278.871094 701.921875 275.96875 704.339844 276.566406 C 704.957031 276.71875 705.179688 277.46875 705.070312 278.574219 Z M 705.070312 278.574219 " fill-opacity="1" fill-rule="nonzero"/><path fill="#2e2d40" d="M 667.339844 203.128906 C 667.339844 203.128906 650.304688 202.039062 641.398438 213.796875 Z M 667.339844 203.128906 " fill-opacity="1" fill-rule="nonzero"/><path fill="#2e2d40" d="M 701.1875 203.503906 C 701.1875 203.503906 712.304688 195.722656 726.960938 202.117188 Z M 701.1875 203.503906 " fill-opacity="1" fill-rule="nonzero"/><path fill="#2e2d40" d="M 711.589844 212.503906 C 711.589844 212.503906 718.808594 206.878906 727.671875 211.113281 C 727.671875 211.113281 719.820312 211.507812 715.621094 214.414062 Z M 711.589844 212.503906 " fill-opacity="1" fill-rule="nonzero"/><path fill="#2e2d40" d="M 671.160156 228.109375 C 671.238281 228.5625 671.273438 229.019531 671.277344 229.480469 C 671.277344 229.9375 671.242188 230.390625 671.167969 230.835938 C 671.09375 231.28125 670.984375 231.710938 670.835938 232.121094 C 670.691406 232.535156 670.511719 232.925781 670.296875 233.292969 C 670.085938 233.660156 669.84375 233.992188 669.574219 234.300781 C 669.304688 234.605469 669.007812 234.871094 668.691406 235.105469 C 668.371094 235.335938 668.035156 235.527344 667.679688 235.679688 C 667.324219 235.828125 666.960938 235.933594 666.585938 236 C 666.207031 236.0625 665.828125 236.078125 665.445312 236.050781 C 665.058594 236.023438 664.679688 235.953125 664.304688 235.835938 C 663.925781 235.71875 663.558594 235.558594 663.207031 235.359375 C 662.851562 235.160156 662.511719 234.917969 662.195312 234.640625 C 661.875 234.363281 661.578125 234.054688 661.304688 233.710938 C 661.035156 233.367188 660.789062 232.996094 660.578125 232.597656 C 660.363281 232.203125 660.183594 231.785156 660.035156 231.351562 C 659.886719 230.917969 659.773438 230.472656 659.699219 230.015625 C 659.625 229.5625 659.585938 229.105469 659.582031 228.644531 C 659.582031 228.1875 659.621094 227.734375 659.695312 227.289062 C 659.765625 226.847656 659.878906 226.417969 660.023438 226.003906 C 660.167969 225.589844 660.347656 225.199219 660.5625 224.832031 C 660.773438 224.46875 661.015625 224.132812 661.285156 223.828125 C 661.558594 223.523438 661.851562 223.253906 662.171875 223.019531 C 662.488281 222.789062 662.824219 222.597656 663.179688 222.449219 C 663.535156 222.296875 663.898438 222.191406 664.277344 222.128906 C 664.652344 222.066406 665.03125 222.046875 665.417969 222.074219 C 665.800781 222.101562 666.179688 222.175781 666.558594 222.289062 C 666.933594 222.40625 667.300781 222.566406 667.65625 222.765625 C 668.007812 222.96875 668.347656 223.207031 668.667969 223.484375 C 668.984375 223.761719 669.28125 224.074219 669.554688 224.417969 C 669.828125 224.761719 670.070312 225.128906 670.285156 225.527344 C 670.496094 225.925781 670.679688 226.339844 670.824219 226.773438 C 670.972656 227.207031 671.085938 227.652344 671.160156 228.109375 Z M 671.160156 228.109375 " fill-opacity="1" fill-rule="nonzero"/><path fill="#2e2d40" d="M 666.796875 222.25 C 666.796875 222.25 658.136719 219.269531 651.128906 226.152344 C 651.128906 226.152344 658.679688 223.976562 663.589844 225.363281 Z M 666.796875 222.25 " fill-opacity="1" fill-rule="nonzero"/><path fill="#2e2d40" d="M 619.339844 229.5625 C 622.339844 221.859375 616.773438 198.722656 641.230469 188.671875 C 685.707031 170.429688 683.664062 142.511719 683.664062 142.511719 C 683.664062 142.511719 712.902344 134.828125 740.136719 174.96875 C 740.136719 174.96875 743.679688 68.457031 673.1875 86.078125 C 667.507812 87.503906 643.105469 72.804688 602.960938 88.421875 C 530.105469 116.769531 567.910156 212.503906 598.367188 230.5 C 603.351562 233.445312 619.339844 229.5625 619.339844 229.5625 Z M 619.339844 229.5625 " fill-opacity="1" fill-rule="nonzero"/><path fill="#f9acb2" d="M 613.941406 230.765625 C 613.941406 230.765625 589.613281 227.613281 592.164062 247.394531 C 594.710938 267.15625 628.675781 278.160156 628.675781 278.160156 Z M 613.941406 230.765625 " fill-opacity="1" fill-rule="nonzero"/><path fill="#2e2d40" d="M 609.386719 243.117188 C 609.386719 243.117188 596.117188 247.355469 613.136719 260.519531 Z M 609.386719 243.117188 " fill-opacity="1" fill-rule="nonzero"/><path fill="#7e65e5" d="M 752.917969 335.402344 C 752.917969 335.402344 780.078125 327.769531 832.5 324.957031 C 832.5 324.957031 856.695312 390.539062 857.203125 431.636719 C 857.710938 472.734375 875.683594 486.367188 874.800781 538.636719 C 873.902344 590.910156 857.691406 619.367188 866.238281 713.523438 C 870.378906 759.195312 549.765625 734.765625 549.765625 734.765625 C 549.765625 734.765625 552.203125 628.707031 548.644531 579.734375 C 545.082031 530.761719 509.488281 405.296875 509.488281 405.296875 L 608.28125 361.761719 C 608.28125 361.761719 622.902344 381.148438 690.617188 359.980469 C 758.316406 338.832031 752.917969 335.402344 752.917969 335.402344 Z M 752.917969 335.402344 " fill-opacity="1" fill-rule="nonzero"/><path fill="#7e65e5" d="M 832.5 324.957031 C 832.5 324.957031 856.734375 321.1875 888.859375 359.886719 C 917.796875 394.757812 946.605469 453.761719 979.066406 450.894531 C 1010.105469 448.15625 1014.453125 451.753906 1014.453125 451.753906 C 1014.453125 451.753906 1026.019531 698.636719 937.757812 713.226562 C 875.832031 723.441406 840.074219 554.628906 840.074219 554.628906 Z M 832.5 324.957031 " fill-opacity="1" fill-rule="nonzero"/><path fill="#2e2d40" d="M 862.320312 638.023438 C 861.777344 638.023438 861.308594 637.628906 861.234375 637.066406 C 861.101562 636.09375 848.46875 538.65625 857.820312 495.253906 C 857.953125 494.671875 858.535156 494.296875 859.113281 494.410156 C 859.695312 494.539062 860.070312 495.121094 859.957031 495.703125 C 850.679688 538.730469 863.277344 635.792969 863.40625 636.785156 C 863.480469 637.386719 863.070312 637.929688 862.46875 638.003906 C 862.414062 638.023438 862.375 638.023438 862.320312 638.023438 Z M 862.320312 638.023438 " fill-opacity="1" fill-rule="nonzero"/><path fill="#2e2d40" d="M 893.46875 600.882812 C 892.871094 600.882812 892.382812 600.394531 892.382812 599.796875 C 892.382812 573.601562 909.421875 528.417969 909.589844 527.96875 C 909.796875 527.40625 910.433594 527.125 910.996094 527.332031 C 911.558594 527.539062 911.839844 528.175781 911.632812 528.738281 C 911.464844 529.1875 894.558594 573.996094 894.558594 599.796875 C 894.558594 600.394531 894.070312 600.882812 893.46875 600.882812 Z M 893.46875 600.882812 " fill-opacity="1" fill-rule="nonzero"/><path fill="#7e65e5" d="M 723.136719 313.894531 C 723.136719 313.894531 751.871094 331.539062 755.84375 335.25 C 759.816406 338.960938 760.902344 361.984375 760.902344 361.984375 L 615.03125 386.527344 L 603.164062 365.042969 C 603.164062 365.042969 621.851562 330.5625 628.636719 329.363281 C 628.636719 329.363281 656.414062 345.375 691.929688 338.023438 C 727.449219 330.675781 723.136719 313.894531 723.136719 313.894531 Z M 723.136719 313.894531 " fill-opacity="1" fill-rule="nonzero"/><path fill="#2e2d40" d="M 664.808594 389.058594 C 646.929688 389.058594 633.773438 385.496094 624.8125 381.652344 C 609.050781 374.902344 602.527344 366.074219 602.265625 365.699219 C 601.910156 365.210938 602.023438 364.535156 602.507812 364.179688 C 602.996094 363.824219 603.671875 363.9375 604.027344 364.421875 C 604.289062 364.78125 630.265625 399.144531 702.539062 382.199219 C 731.289062 375.464844 743.941406 363.074219 749.507812 353.867188 C 755.503906 343.929688 754.753906 335.476562 754.738281 335.382812 C 754.679688 334.78125 755.113281 334.257812 755.710938 334.183594 C 756.3125 334.125 756.835938 334.558594 756.910156 335.15625 C 756.949219 335.511719 759.871094 371.003906 703.027344 384.316406 C 688.445312 387.726562 675.738281 389.058594 664.808594 389.058594 Z M 664.808594 389.058594 " fill-opacity="1" fill-rule="nonzero"/><path fill="#f9acb2" d="M 963.097656 535.019531 C 950.183594 529.542969 939.875 519.289062 933.785156 506.652344 C 927.132812 492.816406 918.714844 473.523438 916.054688 459.703125 C 911.445312 435.761719 900.78125 394.515625 892.421875 382.984375 C 892.421875 382.984375 905.691406 370.589844 918.660156 391.347656 C 931.628906 412.121094 955.285156 421.925781 968.835938 415.289062 C 982.386719 408.652344 1003.433594 356.457031 1011.511719 343.179688 C 1019.589844 329.90625 1027.367188 320.101562 1037.171875 323.289062 C 1046.972656 326.457031 1013.234375 395.675781 1013.234375 395.675781 C 1013.234375 395.675781 1054.75 459.421875 1054.46875 472.980469 C 1054.1875 486.535156 1008.042969 524.3125 1008.042969 524.3125 C 1008.042969 524.3125 994.585938 539.03125 970.800781 537.34375 C 968.835938 537.210938 966.097656 536.292969 963.097656 535.019531 Z M 963.097656 535.019531 " fill-opacity="1" fill-rule="nonzero"/><path fill="#2e2d40" d="M 1036.664062 247.957031 L 1016.085938 594.734375 C 1015.371094 602.214844 1008.71875 607.746094 1000.585938 607.574219 L 827.457031 604.164062 C 816.625 603.957031 807.667969 595.5 808.359375 586.070312 L 833.289062 243.027344 C 833.90625 234.738281 841.066406 229.300781 850.175781 230.203125 L 1018.953125 227.144531 C 1029.1875 228.234375 1037.582031 238.167969 1036.664062 247.957031 Z M 1036.664062 247.957031 " fill-opacity="1" fill-rule="nonzero"/><path fill="#ffffff" d="M 1005.699219 597.1875 L 1005.175781 597.171875 L 830.777344 595.464844 L 830.792969 594.359375 L 1004.671875 596.0625 L 1027.144531 241.976562 L 1028.230469 242.03125 Z M 1005.699219 597.1875 " fill-opacity="1" fill-rule="nonzero"/><path fill="#ffffff" d="M 898.023438 574.898438 C 898.398438 580.222656 902.390625 584.535156 906.925781 584.535156 C 911.445312 584.550781 914.800781 580.277344 914.425781 574.992188 C 914.050781 569.703125 910.09375 565.355469 905.558594 565.316406 C 901.023438 565.296875 897.648438 569.570312 898.023438 574.898438 Z M 898.023438 574.898438 " fill-opacity="1" fill-rule="nonzero"/><path fill="#ffffff" d="M 1015.632812 242.539062 L 999.664062 556.429688 L 820.054688 553.878906 L 843.128906 245.03125 Z M 1015.632812 242.539062 " fill-opacity="1" fill-rule="nonzero"/><path fill="#e3e3e3" d="M 947.644531 294.117188 C 948.339844 294.839844 949 295.597656 949.617188 296.390625 C 950.234375 297.179688 950.808594 298.003906 951.34375 298.859375 C 951.875 299.710938 952.363281 300.59375 952.804688 301.5 C 953.246094 302.410156 953.644531 303.339844 953.992188 304.292969 C 954.339844 305.246094 954.636719 306.21875 954.886719 307.207031 C 955.136719 308.199219 955.339844 309.199219 955.488281 310.214844 C 955.636719 311.230469 955.734375 312.257812 955.785156 313.289062 C 955.832031 314.320312 955.828125 315.355469 955.773438 316.398438 C 955.71875 317.4375 955.613281 318.472656 955.460938 319.511719 C 955.304688 320.546875 955.097656 321.574219 954.839844 322.597656 C 954.585938 323.621094 954.28125 324.632812 953.925781 325.632812 C 953.570312 326.632812 953.171875 327.617188 952.722656 328.582031 C 952.273438 329.550781 951.78125 330.496094 951.242188 331.421875 C 950.703125 332.347656 950.125 333.246094 949.5 334.121094 C 948.878906 334.996094 948.214844 335.839844 947.511719 336.65625 C 946.8125 337.46875 946.074219 338.253906 945.296875 339 C 944.523438 339.746094 943.71875 340.457031 942.878906 341.132812 C 942.042969 341.804688 941.175781 342.4375 940.277344 343.03125 C 939.382812 343.621094 938.464844 344.171875 937.523438 344.679688 C 936.578125 345.183594 935.617188 345.644531 934.632812 346.058594 C 933.652344 346.472656 932.65625 346.839844 931.644531 347.160156 C 930.632812 347.476562 929.613281 347.75 928.582031 347.96875 C 927.550781 348.1875 926.515625 348.359375 925.472656 348.480469 C 924.433594 348.597656 923.390625 348.667969 922.351562 348.6875 C 921.3125 348.703125 920.277344 348.671875 919.246094 348.589844 C 918.214844 348.503906 917.195312 348.371094 916.1875 348.183594 C 915.175781 348 914.183594 347.765625 913.203125 347.480469 C 912.222656 347.195312 911.261719 346.863281 910.324219 346.484375 C 909.382812 346.101562 908.464844 345.675781 907.574219 345.199219 C 906.683594 344.726562 905.820312 344.207031 904.984375 343.644531 C 904.148438 343.082031 903.347656 342.480469 902.578125 341.832031 C 901.808594 341.1875 901.074219 340.503906 900.378906 339.78125 C 899.679688 339.058594 899.023438 338.304688 898.402344 337.511719 C 897.785156 336.71875 897.210938 335.898438 896.679688 335.042969 C 896.144531 334.1875 895.65625 333.308594 895.214844 332.398438 C 894.773438 331.492188 894.378906 330.558594 894.027344 329.605469 C 893.679688 328.652344 893.382812 327.683594 893.132812 326.691406 C 892.882812 325.703125 892.683594 324.699219 892.53125 323.683594 C 892.382812 322.667969 892.285156 321.644531 892.234375 320.613281 C 892.1875 319.578125 892.191406 318.542969 892.246094 317.503906 C 892.300781 316.464844 892.40625 315.425781 892.5625 314.390625 C 892.71875 313.355469 892.921875 312.324219 893.179688 311.300781 C 893.4375 310.277344 893.742188 309.265625 894.09375 308.265625 C 894.449219 307.265625 894.851562 306.285156 895.296875 305.316406 C 895.746094 304.347656 896.238281 303.402344 896.777344 302.476562 C 897.316406 301.554688 897.898438 300.652344 898.519531 299.777344 C 899.144531 298.90625 899.804688 298.058594 900.507812 297.246094 C 901.210938 296.429688 901.949219 295.648438 902.722656 294.902344 C 903.496094 294.152344 904.300781 293.441406 905.140625 292.769531 C 905.980469 292.09375 906.847656 291.460938 907.742188 290.871094 C 908.636719 290.277344 909.554688 289.726562 910.5 289.222656 C 911.441406 288.714844 912.402344 288.257812 913.386719 287.839844 C 914.367188 287.425781 915.363281 287.058594 916.375 286.742188 C 917.386719 286.421875 918.410156 286.152344 919.4375 285.933594 C 920.46875 285.710938 921.507812 285.542969 922.546875 285.421875 C 923.585938 285.300781 924.628906 285.230469 925.667969 285.214844 C 926.707031 285.195312 927.742188 285.230469 928.773438 285.3125 C 929.804688 285.394531 930.824219 285.53125 931.832031 285.714844 C 932.84375 285.902344 933.835938 286.136719 934.816406 286.417969 C 935.796875 286.703125 936.757812 287.035156 937.699219 287.417969 C 938.636719 287.800781 939.554688 288.226562 940.445312 288.699219 C 941.339844 289.175781 942.203125 289.691406 943.035156 290.253906 C 943.871094 290.816406 944.671875 291.421875 945.441406 292.066406 C 946.210938 292.710938 946.945312 293.394531 947.644531 294.117188 Z M 947.644531 294.117188 " fill-opacity="1" fill-rule="nonzero"/><path fill="#2e2d40" d="M 931.773438 301.84375 C 932.199219 302.285156 932.574219 302.765625 932.902344 303.289062 C 933.226562 303.808594 933.496094 304.363281 933.707031 304.945312 C 933.921875 305.527344 934.070312 306.128906 934.164062 306.746094 C 934.253906 307.367188 934.285156 307.996094 934.25 308.628906 C 934.21875 309.265625 934.121094 309.894531 933.964844 310.519531 C 933.808594 311.144531 933.59375 311.753906 933.320312 312.34375 C 933.046875 312.933594 932.71875 313.496094 932.339844 314.03125 C 931.957031 314.5625 931.53125 315.058594 931.058594 315.515625 C 930.585938 315.972656 930.078125 316.382812 929.53125 316.742188 C 928.984375 317.105469 928.410156 317.414062 927.8125 317.667969 C 927.210938 317.917969 926.597656 318.113281 925.96875 318.246094 C 925.335938 318.382812 924.703125 318.457031 924.070312 318.464844 C 923.433594 318.476562 922.808594 318.425781 922.191406 318.3125 C 921.574219 318.199219 920.980469 318.027344 920.40625 317.796875 C 919.832031 317.5625 919.289062 317.273438 918.78125 316.929688 C 918.269531 316.589844 917.800781 316.195312 917.375 315.753906 C 916.949219 315.3125 916.574219 314.832031 916.25 314.3125 C 915.925781 313.789062 915.65625 313.238281 915.441406 312.65625 C 915.230469 312.074219 915.078125 311.472656 914.988281 310.851562 C 914.894531 310.230469 914.867188 309.605469 914.898438 308.96875 C 914.933594 308.335938 915.027344 307.703125 915.183594 307.078125 C 915.339844 306.453125 915.554688 305.847656 915.828125 305.257812 C 916.101562 304.664062 916.429688 304.105469 916.8125 303.570312 C 917.191406 303.035156 917.617188 302.539062 918.089844 302.082031 C 918.5625 301.628906 919.074219 301.21875 919.621094 300.855469 C 920.167969 300.492188 920.738281 300.1875 921.339844 299.933594 C 921.9375 299.679688 922.554688 299.484375 923.183594 299.351562 C 923.8125 299.214844 924.445312 299.144531 925.082031 299.132812 C 925.714844 299.121094 926.34375 299.171875 926.957031 299.285156 C 927.574219 299.398438 928.171875 299.570312 928.746094 299.804688 C 929.320312 300.035156 929.859375 300.324219 930.371094 300.667969 C 930.882812 301.011719 931.347656 301.402344 931.773438 301.84375 Z M 931.773438 301.84375 " fill-opacity="1" fill-rule="nonzero"/><path fill="#2e2d40" d="M 936.652344 334.820312 L 908.875 334.820312 L 909.589844 324.730469 C 909.738281 322.539062 911.632812 320.777344 913.824219 320.777344 L 933.691406 320.777344 C 935.882812 320.777344 937.515625 322.539062 937.367188 324.730469 Z M 936.652344 334.820312 " fill-opacity="1" fill-rule="nonzero"/><path fill="#e3e3e3" d="M 911.277344 381.183594 L 862.582031 381.183594 C 859.789062 381.183594 857.691406 378.917969 857.878906 376.121094 C 858.066406 373.328125 860.5 371.058594 863.292969 371.058594 L 911.988281 371.058594 C 914.78125 371.058594 916.878906 373.328125 916.691406 376.121094 C 916.484375 378.917969 914.066406 381.183594 911.277344 381.183594 Z M 911.277344 381.183594 " fill-opacity="1" fill-rule="nonzero"/><path fill="#e3e3e3" d="M 973.800781 413.1875 L 860.238281 413.1875 C 857.503906 413.1875 855.441406 410.976562 855.628906 408.21875 L 855.648438 408.015625 C 855.835938 405.277344 858.214844 403.046875 860.953125 403.046875 L 974.511719 403.046875 C 977.25 403.046875 979.3125 405.257812 979.125 408.015625 L 979.105469 408.21875 C 978.898438 410.957031 976.539062 413.1875 973.800781 413.1875 Z M 973.800781 413.1875 " fill-opacity="1" fill-rule="nonzero"/><path fill="#e3e3e3" d="M 971.683594 443.410156 L 858.121094 443.410156 C 855.386719 443.410156 853.324219 441.199219 853.511719 438.445312 L 853.53125 438.238281 C 853.71875 435.5 856.097656 433.269531 858.832031 433.269531 L 972.394531 433.269531 C 975.132812 433.269531 977.195312 435.480469 977.007812 438.238281 L 976.988281 438.445312 C 976.800781 441.199219 974.417969 443.410156 971.683594 443.410156 Z M 971.683594 443.410156 " fill-opacity="1" fill-rule="nonzero"/><path fill="#e3e3e3" d="M 976.480469 381.183594 L 927.789062 381.183594 C 924.996094 381.183594 922.894531 378.917969 923.082031 376.121094 C 923.269531 373.328125 925.707031 371.058594 928.5 371.058594 L 977.195312 371.058594 C 979.984375 371.058594 982.085938 373.328125 981.898438 376.121094 C 981.710938 378.917969 979.273438 381.183594 976.480469 381.183594 Z M 976.480469 381.183594 " fill-opacity="1" fill-rule="nonzero"/><path fill="#7e65e5" d="M 960.007812 510.625 L 863.089844 510.625 C 855.292969 510.625 849.40625 504.308594 849.949219 496.507812 C 850.492188 488.707031 857.257812 482.390625 865.054688 482.390625 L 961.972656 482.390625 C 969.769531 482.390625 975.65625 488.707031 975.113281 496.507812 C 974.570312 504.308594 967.804688 510.625 960.007812 510.625 Z M 960.007812 510.625 " fill-opacity="1" fill-rule="nonzero"/><path fill="#ffffff" d="M 881.136719 503.3125 C 878.324219 503.3125 876.246094 501.925781 876.339844 499.285156 L 879.714844 499.285156 C 879.730469 500.296875 880.332031 500.765625 881.230469 500.765625 C 882.167969 500.765625 882.785156 500.296875 882.84375 499.546875 C 883.011719 497.128906 876.414062 498.441406 876.769531 493.808594 C 876.9375 491.332031 879.058594 489.964844 881.792969 489.964844 C 884.640625 489.964844 886.441406 491.371094 886.402344 493.863281 L 882.972656 493.863281 C 882.972656 493.039062 882.410156 492.535156 881.570312 492.515625 C 880.800781 492.496094 880.199219 492.890625 880.144531 493.695312 C 879.992188 495.964844 886.496094 494.933594 886.199219 499.300781 C 886.011719 501.496094 884.171875 503.3125 881.136719 503.3125 Z M 881.136719 503.3125 " fill-opacity="1" fill-rule="nonzero"/><path fill="#ffffff" d="M 888.746094 490.152344 L 891.914062 490.152344 L 890.996094 503.183594 L 887.828125 503.183594 Z M 888.746094 490.152344 " fill-opacity="1" fill-rule="nonzero"/><path fill="#ffffff" d="M 906.082031 494.277344 L 902.578125 494.277344 C 902.167969 493.414062 901.304688 492.945312 900.105469 492.945312 C 898.0625 492.945312 896.601562 494.390625 896.449219 496.660156 C 896.28125 499.078125 897.554688 500.484375 899.84375 500.484375 C 901.417969 500.484375 902.578125 499.640625 903.160156 498.175781 L 899.128906 498.175781 L 899.300781 495.832031 L 906.195312 495.832031 L 905.988281 498.777344 C 905.164062 501.027344 902.839844 503.257812 899.410156 503.257812 C 895.511719 503.257812 892.964844 500.539062 893.226562 496.640625 C 893.507812 492.738281 896.414062 490.003906 900.3125 490.003906 C 903.441406 490.003906 905.597656 491.597656 906.082031 494.277344 Z M 906.082031 494.277344 " fill-opacity="1" fill-rule="nonzero"/><path fill="#ffffff" d="M 920.007812 490.152344 L 919.089844 503.183594 L 915.921875 503.183594 L 911.183594 495.160156 L 910.621094 503.183594 L 907.453125 503.183594 L 908.371094 490.152344 L 911.539062 490.152344 L 916.28125 498.214844 L 916.84375 490.152344 Z M 920.007812 490.152344 " fill-opacity="1" fill-rule="nonzero"/><path fill="#ffffff" d="M 926.175781 490.152344 L 929.34375 490.152344 L 928.800781 497.953125 C 928.6875 499.488281 929.398438 500.390625 930.898438 500.390625 C 932.398438 500.390625 933.261719 499.507812 933.375 497.953125 L 933.917969 490.152344 L 937.085938 490.152344 L 936.539062 497.933594 C 936.296875 501.53125 933.636719 503.3125 930.636719 503.3125 C 927.621094 503.3125 925.371094 501.53125 925.632812 497.933594 Z M 926.175781 490.152344 " fill-opacity="1" fill-rule="nonzero"/><path fill="#ffffff" d="M 943.867188 498.496094 L 941.902344 498.496094 L 941.582031 503.164062 L 938.414062 503.164062 L 939.332031 490.132812 L 944.46875 490.132812 C 947.65625 490.132812 949.136719 491.933594 948.96875 494.332031 C 948.796875 496.488281 947.1875 498.496094 943.867188 498.496094 Z M 943.8125 495.984375 C 945.070312 495.984375 945.648438 495.347656 945.722656 494.351562 C 945.800781 493.339844 945.292969 492.722656 944.039062 492.722656 L 942.3125 492.722656 L 942.089844 495.984375 Z M 943.8125 495.984375 " fill-opacity="1" fill-rule="nonzero"/><path fill="#f9acb2" d="M 1055.238281 472.753906 C 1055.238281 472.753906 1063.671875 454.15625 1048.960938 444.199219 C 1048.960938 444.199219 1069.5 424.945312 1067.121094 413.921875 C 1064.742188 402.894531 1055.667969 401.152344 1055.667969 401.152344 C 1055.667969 401.152344 1061.949219 381.898438 1046.371094 379.515625 C 1046.371094 379.515625 1039.457031 367.40625 1029.730469 365.453125 C 1020 363.503906 1004.277344 384.410156 1006 389.828125 C 1007.726562 395.246094 1016.515625 392.226562 1022.363281 389.976562 C 1029.054688 387.410156 1030.777344 387.429688 1030.777344 387.429688 C 1030.777344 387.429688 1004.203125 404.828125 1004.425781 410.453125 C 1004.652344 416.078125 1007.460938 420.613281 1024.539062 419.75 C 1024.539062 419.75 1004.425781 434.46875 1007.011719 441.164062 C 1009.597656 447.855469 1025.605469 446.355469 1025.605469 446.355469 C 1025.605469 446.355469 991.230469 464.746094 997.0625 474.046875 C 1002.910156 483.347656 1028.191406 466.265625 1032.523438 466.472656 C 1036.851562 466.699219 1045.285156 475.117188 1045.285156 475.117188 L 1054.433594 472.960938 " fill-opacity="1" fill-rule="nonzero"/><path fill="#2e2d40" d="M 1025.605469 447.273438 C 1025.25 447.273438 1024.929688 447.066406 1024.761719 446.730469 C 1024.574219 446.316406 1024.726562 445.8125 1025.101562 445.566406 L 1047.796875 431.074219 C 1048.226562 430.8125 1048.789062 430.925781 1049.070312 431.355469 C 1049.351562 431.789062 1049.222656 432.351562 1048.789062 432.632812 L 1030.683594 444.179688 C 1035.3125 443.261719 1042.304688 442.363281 1049.050781 443.28125 C 1049.558594 443.355469 1049.914062 443.804688 1049.839844 444.3125 C 1049.765625 444.816406 1049.296875 445.175781 1048.808594 445.097656 C 1037.902344 443.617188 1025.960938 447.199219 1025.847656 447.238281 C 1025.792969 447.273438 1025.699219 447.273438 1025.605469 447.273438 Z M 1025.605469 447.273438 " fill-opacity="1" fill-rule="nonzero"/><path fill="#2e2d40" d="M 1024.519531 420.667969 C 1024.21875 420.667969 1023.917969 420.519531 1023.75 420.238281 C 1023.488281 419.808594 1023.601562 419.246094 1024.03125 418.964844 C 1025.136719 418.269531 1051.1875 401.808594 1055.351562 400.269531 C 1055.820312 400.101562 1056.363281 400.347656 1056.53125 400.816406 C 1056.699219 401.285156 1056.457031 401.828125 1055.988281 401.996094 C 1052.820312 403.160156 1034.339844 414.613281 1025.023438 420.519531 C 1024.875 420.632812 1024.6875 420.667969 1024.519531 420.667969 Z M 1024.519531 420.667969 " fill-opacity="1" fill-rule="nonzero"/><path fill="#f9acb2" d="M 640.21875 522.90625 L 663.066406 503.539062 L 702.6875 557.929688 L 667.339844 587.269531 C 667.339844 587.269531 636.507812 549.230469 636.507812 548.5 C 636.507812 547.765625 640.21875 522.90625 640.21875 522.90625 Z M 640.21875 522.90625 " fill-opacity="1" fill-rule="nonzero"/><path fill="#f9acb2" d="M 787.03125 512.3125 C 787.835938 512.238281 817.28125 515.839844 817.226562 528.0625 C 817.1875 540.285156 779.421875 536.835938 770.96875 535.375 C 762.515625 533.910156 787.03125 512.3125 787.03125 512.3125 Z M 787.03125 512.3125 " fill-opacity="1" fill-rule="nonzero"/><path fill="#f9acb2" d="M 662.355469 503.203125 C 662.355469 503.203125 710.691406 480.140625 728.402344 472.527344 C 746.117188 464.917969 775.390625 451.90625 790.628906 444.96875 C 805.867188 438.03125 835.253906 423.199219 839.828125 428.261719 C 847.457031 436.679688 838.683594 443.710938 824.402344 451.324219 C 810.121094 458.9375 778.070312 479.933594 778.972656 482.710938 C 779.871094 485.464844 801.519531 497.632812 802.398438 507.25 C 803.054688 514.320312 798.96875 522.398438 788.210938 524.351562 C 788.210938 524.351562 781.558594 539.929688 769.148438 541.035156 C 769.148438 541.035156 768.945312 553.035156 757.304688 557.027344 C 745.664062 561.023438 731.101562 551.554688 731.101562 551.554688 C 731.101562 551.554688 720.792969 562.449219 702.59375 562.898438 C 684.378906 563.347656 673.09375 558.304688 673.09375 558.304688 Z M 662.355469 503.203125 " fill-opacity="1" fill-rule="nonzero"/><path fill="#2e2d40" d="M 769.148438 542.050781 C 768.625 542.050781 768.175781 541.65625 768.136719 541.113281 C 768.082031 540.550781 768.496094 540.0625 769.054688 540.003906 C 780.695312 538.957031 787.199219 524.070312 787.253906 523.917969 C 787.386719 523.601562 787.667969 523.375 788.003906 523.320312 C 798.089844 521.480469 801.96875 513.964844 801.351562 507.328125 C 801.292969 506.765625 801.707031 506.257812 802.269531 506.21875 C 802.8125 506.183594 803.335938 506.578125 803.375 507.140625 C 804.066406 514.582031 799.851562 523 788.886719 525.230469 C 787.59375 528.007812 780.921875 541 769.207031 542.050781 C 769.207031 542.050781 769.167969 542.050781 769.148438 542.050781 Z M 769.148438 542.050781 " fill-opacity="1" fill-rule="nonzero"/><path fill="#2e2d40" d="M 733.203125 550.09375 C 733.015625 550.09375 732.808594 550.035156 732.640625 549.921875 C 732.171875 549.605469 732.039062 548.984375 732.359375 548.515625 L 735.917969 543.136719 C 736.238281 542.667969 736.855469 542.535156 737.324219 542.855469 C 737.792969 543.175781 737.925781 543.792969 737.605469 544.261719 L 734.046875 549.640625 C 733.859375 549.921875 733.539062 550.09375 733.203125 550.09375 Z M 733.203125 550.09375 " fill-opacity="1" fill-rule="nonzero"/><path fill="#2e2d40" d="M 788.191406 525.34375 C 787.929688 525.34375 787.667969 525.25 787.460938 525.042969 C 787.238281 524.820312 765.34375 502.675781 762.027344 499.863281 C 761.597656 499.507812 761.539062 498.851562 761.914062 498.421875 C 762.289062 497.988281 762.925781 497.933594 763.359375 498.308594 C 766.730469 501.175781 788.023438 522.699219 788.921875 523.601562 C 789.316406 523.992188 789.316406 524.648438 788.921875 525.042969 C 788.71875 525.25 788.453125 525.34375 788.191406 525.34375 Z M 788.191406 525.34375 " fill-opacity="1" fill-rule="nonzero"/><path fill="#2e2d40" d="M 769.148438 542.050781 C 768.867188 542.050781 768.589844 541.9375 768.402344 541.710938 L 749.265625 520.507812 C 748.890625 520.09375 748.925781 519.4375 749.339844 519.0625 C 749.75 518.6875 750.40625 518.726562 750.78125 519.136719 L 769.917969 540.34375 C 770.292969 540.753906 770.257812 541.410156 769.84375 541.785156 C 769.636719 541.957031 769.394531 542.050781 769.148438 542.050781 Z M 769.148438 542.050781 " fill-opacity="1" fill-rule="nonzero"/><path fill="#2e2d40" d="M 746.492188 556.203125 C 746.152344 556.203125 745.816406 556.035156 745.628906 555.71875 C 743.546875 552.378906 737.175781 543.679688 732.789062 543.53125 C 732.226562 543.511719 731.777344 543.042969 731.816406 542.460938 C 731.832031 541.898438 732.300781 541.46875 732.882812 541.488281 C 739.125 541.710938 746.546875 553.316406 747.371094 554.648438 C 747.671875 555.136719 747.519531 555.753906 747.050781 556.054688 C 746.863281 556.167969 746.679688 556.203125 746.492188 556.203125 Z M 746.492188 556.203125 " fill-opacity="1" fill-rule="nonzero"/><path fill="#7e65e5" d="M 509.472656 405.296875 C 509.472656 405.296875 471.273438 423.988281 471.796875 470.652344 C 472.511719 532.507812 466.175781 548.199219 461.902344 581.363281 C 457.949219 612.039062 437.03125 643.273438 443.589844 684.988281 C 449.476562 722.46875 474.253906 780.421875 530.351562 745.023438 C 585.601562 710.148438 596.625 695.375 624.851562 670.140625 C 664.960938 634.3125 691.425781 569.460938 691.425781 569.460938 C 691.425781 569.460938 650.679688 555.71875 650.117188 512.371094 C 650.117188 512.371094 617.671875 540.566406 600.953125 552.398438 C 588.769531 561.042969 581.144531 564.246094 581.144531 564.246094 C 581.144531 564.246094 584.273438 506.839844 575.949219 477.382812 C 567.609375 447.929688 542.0625 432.367188 538.726562 414.03125 C 535.410156 395.675781 509.472656 405.296875 509.472656 405.296875 Z M 509.472656 405.296875 " fill-opacity="1" fill-rule="nonzero"/><path fill="#2e2d40" d="M 581.160156 565.277344 C 580.957031 565.277344 580.75 565.222656 580.582031 565.089844 C 580.300781 564.886719 580.128906 564.546875 580.148438 564.210938 C 580.1875 563.628906 583.1875 506.632812 574.996094 477.664062 C 574.84375 477.121094 575.164062 476.558594 575.707031 476.410156 C 576.25 476.257812 576.8125 476.578125 576.964844 477.121094 C 584.441406 503.558594 582.699219 552.886719 582.265625 562.636719 C 585.042969 561.285156 591.527344 557.871094 600.390625 551.59375 C 616.886719 539.910156 649.160156 511.902344 649.476562 511.621094 C 649.910156 511.246094 650.546875 511.300781 650.921875 511.714844 C 651.296875 512.144531 651.238281 512.78125 650.828125 513.15625 C 650.507812 513.4375 618.160156 541.523438 601.589844 553.261719 C 589.445312 561.867188 581.910156 565.074219 581.59375 565.203125 C 581.425781 565.242188 581.292969 565.277344 581.160156 565.277344 Z M 581.160156 565.277344 " fill-opacity="1" fill-rule="nonzero"/><path fill="#2e2d40" d="M 530.367188 746.054688 C 530.03125 746.054688 529.695312 745.886719 529.507812 745.585938 C 529.207031 745.117188 529.355469 744.480469 529.824219 744.179688 C 573.402344 716.675781 589.484375 701.636719 608.09375 684.222656 C 613.097656 679.550781 618.253906 674.714844 624.195312 669.410156 C 663.648438 634.144531 690.226562 569.742188 690.488281 569.105469 C 690.695312 568.578125 691.292969 568.335938 691.816406 568.542969 C 692.34375 568.746094 692.585938 569.347656 692.378906 569.871094 C 692.117188 570.527344 665.351562 635.34375 625.542969 670.929688 C 619.621094 676.214844 614.46875 681.050781 609.480469 685.703125 C 590.796875 703.195312 574.640625 718.304688 530.914062 745.902344 C 530.742188 745.996094 530.554688 746.054688 530.367188 746.054688 Z M 530.367188 746.054688 " fill-opacity="1" fill-rule="nonzero"/><path fill="#2e2d40" d="M 487.578125 621.976562 C 487.316406 621.976562 487.074219 621.882812 486.867188 621.695312 C 486.453125 621.300781 486.453125 620.664062 486.847656 620.25 C 503.34375 603.207031 577.523438 564.980469 580.675781 563.367188 C 581.179688 563.105469 581.796875 563.308594 582.042969 563.816406 C 582.304688 564.324219 582.097656 564.941406 581.59375 565.183594 C 580.824219 565.578125 504.558594 604.875 488.292969 621.675781 C 488.121094 621.863281 487.84375 621.976562 487.578125 621.976562 Z M 487.578125 621.976562 " fill-opacity="1" fill-rule="nonzero"/><g clip-path="url(#a175840350)"><path fill="#7e65e5" d="M 918.023438 29.535156 C 874.839844 29.535156 839.753906 64.574219 839.699219 107.789062 C 839.679688 117.222656 841.347656 126.277344 844.402344 134.65625 L 823.898438 174.085938 L 861.027344 161.46875 C 863.183594 163.753906 865.429688 165.96875 867.847656 167.972656 C 870.566406 170.261719 873.433594 172.34375 876.46875 174.21875 C 877.988281 175.171875 879.5625 176.074219 881.15625 176.878906 C 881.625 177.160156 882.074219 177.40625 882.5625 177.628906 C 882.636719 177.667969 882.691406 177.703125 882.769531 177.722656 C 882.898438 177.816406 883.066406 177.875 883.199219 177.949219 C 883.441406 178.078125 883.667969 178.191406 883.929688 178.304688 C 884.023438 178.34375 884.117188 178.398438 884.191406 178.417969 C 893.789062 183.011719 904.453125 185.710938 915.738281 186.011719 C 915.753906 186.011719 915.753906 186.011719 915.753906 186.011719 C 916.429688 186.027344 917.105469 186.027344 917.816406 186.027344 C 918.265625 186.027344 918.699219 186.027344 919.148438 186.011719 C 919.464844 186.027344 919.804688 186.011719 920.121094 186.011719 C 920.308594 185.992188 920.460938 185.992188 920.628906 185.992188 C 921.378906 185.972656 922.128906 185.917969 922.839844 185.878906 C 925.351562 185.730469 927.84375 185.449219 930.261719 185.035156 C 930.917969 184.941406 931.574219 184.828125 932.210938 184.714844 C 932.4375 184.679688 932.679688 184.621094 932.90625 184.585938 C 933.09375 184.546875 933.261719 184.511719 933.449219 184.472656 C 933.46875 184.453125 933.523438 184.453125 933.542969 184.453125 C 933.671875 184.4375 933.824219 184.378906 933.953125 184.359375 C 934.140625 184.324219 934.292969 184.285156 934.480469 184.25 C 938.472656 183.386719 942.351562 182.242188 946.097656 180.761719 C 948.609375 179.804688 951.085938 178.699219 953.464844 177.480469 C 954.683594 176.84375 955.882812 176.1875 957.0625 175.511719 C 957.15625 175.472656 957.25 175.398438 957.34375 175.359375 C 959.539062 174.066406 961.695312 172.660156 963.734375 171.144531 C 963.980469 170.992188 964.242188 170.804688 964.46875 170.617188 C 969.472656 166.925781 974.027344 162.628906 978 157.851562 C 978.992188 156.667969 979.949219 155.46875 980.847656 154.230469 C 980.980469 154.082031 981.09375 153.914062 981.203125 153.761719 C 981.429688 153.445312 981.652344 153.125 981.878906 152.804688 C 990.855469 140.058594 996.160156 124.550781 996.179688 107.789062 C 996.21875 64.574219 961.226562 29.535156 918.023438 29.535156 Z M 918.023438 29.535156 " fill-opacity="1" fill-rule="nonzero"/></g><path fill="#fdbf5b" d="M 894.480469 132.5 C 893.75 132.5 893.039062 132.371094 892.34375 132.125 C 890.566406 131.488281 889.140625 130.101562 888.484375 128.320312 L 878.980469 102.710938 C 877.746094 99.390625 879.449219 95.714844 882.75 94.480469 C 886.046875 93.242188 889.742188 94.929688 890.976562 98.246094 L 897.820312 116.695312 L 953.464844 83.941406 C 956.5 82.140625 960.4375 83.171875 962.238281 86.210938 C 964.035156 89.265625 963.003906 93.183594 959.96875 94.984375 L 897.726562 131.621094 C 896.730469 132.203125 895.625 132.5 894.480469 132.5 Z M 894.480469 132.5 " fill-opacity="1" fill-rule="nonzero"/><g clip-path="url(#f3dd575630)"><path fill="#ffffff" d="M 1237.191406 435.40625 C 1237.191406 436.511719 1237.164062 437.613281 1237.109375 438.714844 C 1237.054688 439.816406 1236.976562 440.917969 1236.867188 442.015625 C 1236.757812 443.113281 1236.625 444.210938 1236.460938 445.300781 C 1236.300781 446.394531 1236.109375 447.480469 1235.894531 448.5625 C 1235.679688 449.644531 1235.4375 450.722656 1235.171875 451.792969 C 1234.902344 452.863281 1234.609375 453.925781 1234.289062 454.984375 C 1233.96875 456.039062 1233.621094 457.085938 1233.25 458.125 C 1232.878906 459.164062 1232.480469 460.195312 1232.058594 461.214844 C 1231.636719 462.234375 1231.191406 463.242188 1230.71875 464.238281 C 1230.246094 465.238281 1229.75 466.222656 1229.230469 467.195312 C 1228.710938 468.171875 1228.167969 469.128906 1227.601562 470.078125 C 1227.03125 471.023438 1226.441406 471.957031 1225.828125 472.875 C 1225.214844 473.792969 1224.582031 474.691406 1223.925781 475.578125 C 1223.265625 476.464844 1222.589844 477.335938 1221.886719 478.1875 C 1221.1875 479.042969 1220.46875 479.878906 1219.726562 480.695312 C 1218.984375 481.511719 1218.226562 482.3125 1217.445312 483.09375 C 1216.664062 483.875 1215.867188 484.632812 1215.046875 485.375 C 1214.230469 486.117188 1213.394531 486.835938 1212.542969 487.539062 C 1211.691406 488.238281 1210.820312 488.917969 1209.933594 489.574219 C 1209.046875 490.230469 1208.148438 490.867188 1207.230469 491.480469 C 1206.3125 492.09375 1205.378906 492.683594 1204.433594 493.25 C 1203.488281 493.816406 1202.527344 494.363281 1201.554688 494.882812 C 1200.582031 495.402344 1199.597656 495.898438 1198.597656 496.371094 C 1197.601562 496.84375 1196.59375 497.289062 1195.574219 497.710938 C 1194.554688 498.132812 1193.523438 498.53125 1192.488281 498.902344 C 1191.449219 499.273438 1190.398438 499.621094 1189.34375 499.941406 C 1188.289062 500.261719 1187.226562 500.554688 1186.15625 500.824219 C 1185.085938 501.09375 1184.007812 501.335938 1182.925781 501.550781 C 1181.84375 501.765625 1180.757812 501.953125 1179.667969 502.117188 C 1178.574219 502.277344 1177.480469 502.414062 1176.382812 502.519531 C 1175.285156 502.628906 1174.183594 502.710938 1173.082031 502.765625 C 1171.980469 502.820312 1170.878906 502.84375 1169.773438 502.84375 C 1168.671875 502.84375 1167.566406 502.820312 1166.464844 502.765625 C 1165.363281 502.710938 1164.265625 502.628906 1163.167969 502.519531 C 1162.066406 502.414062 1160.972656 502.277344 1159.882812 502.117188 C 1158.789062 501.953125 1157.703125 501.765625 1156.621094 501.550781 C 1155.539062 501.335938 1154.464844 501.09375 1153.394531 500.824219 C 1152.324219 500.554688 1151.257812 500.261719 1150.203125 499.941406 C 1149.148438 499.621094 1148.101562 499.273438 1147.0625 498.902344 C 1146.023438 498.53125 1144.992188 498.132812 1143.972656 497.710938 C 1142.957031 497.289062 1141.945312 496.84375 1140.949219 496.371094 C 1139.953125 495.898438 1138.96875 495.402344 1137.992188 494.882812 C 1137.019531 494.363281 1136.0625 493.816406 1135.113281 493.25 C 1134.167969 492.683594 1133.238281 492.09375 1132.320312 491.480469 C 1131.402344 490.867188 1130.5 490.230469 1129.613281 489.574219 C 1128.726562 488.917969 1127.859375 488.238281 1127.003906 487.539062 C 1126.152344 486.835938 1125.316406 486.117188 1124.5 485.375 C 1123.683594 484.632812 1122.882812 483.875 1122.101562 483.09375 C 1121.324219 482.3125 1120.5625 481.511719 1119.820312 480.695312 C 1119.082031 479.878906 1118.359375 479.042969 1117.660156 478.1875 C 1116.960938 477.335938 1116.28125 476.464844 1115.625 475.578125 C 1114.964844 474.691406 1114.332031 473.792969 1113.71875 472.875 C 1113.105469 471.957031 1112.515625 471.023438 1111.949219 470.078125 C 1111.382812 469.128906 1110.835938 468.171875 1110.316406 467.195312 C 1109.796875 466.222656 1109.300781 465.238281 1108.828125 464.238281 C 1108.359375 463.242188 1107.910156 462.234375 1107.488281 461.214844 C 1107.066406 460.195312 1106.667969 459.164062 1106.296875 458.125 C 1105.925781 457.085938 1105.582031 456.039062 1105.261719 454.984375 C 1104.941406 453.925781 1104.644531 452.863281 1104.378906 451.792969 C 1104.109375 450.722656 1103.867188 449.644531 1103.652344 448.5625 C 1103.4375 447.480469 1103.25 446.394531 1103.085938 445.300781 C 1102.925781 444.210938 1102.789062 443.113281 1102.679688 442.015625 C 1102.574219 440.917969 1102.492188 439.816406 1102.4375 438.714844 C 1102.382812 437.613281 1102.355469 436.511719 1102.355469 435.40625 C 1102.355469 434.300781 1102.382812 433.199219 1102.4375 432.097656 C 1102.492188 430.996094 1102.574219 429.894531 1102.679688 428.796875 C 1102.789062 427.699219 1102.925781 426.601562 1103.085938 425.511719 C 1103.25 424.417969 1103.4375 423.332031 1103.652344 422.25 C 1103.867188 421.167969 1104.109375 420.089844 1104.378906 419.019531 C 1104.644531 417.949219 1104.941406 416.886719 1105.261719 415.828125 C 1105.582031 414.773438 1105.925781 413.726562 1106.296875 412.6875 C 1106.667969 411.648438 1107.066406 410.617188 1107.488281 409.597656 C 1107.910156 408.578125 1108.359375 407.570312 1108.828125 406.574219 C 1109.300781 405.574219 1109.796875 404.589844 1110.316406 403.617188 C 1110.835938 402.640625 1111.382812 401.683594 1111.949219 400.734375 C 1112.515625 399.789062 1113.105469 398.855469 1113.71875 397.9375 C 1114.332031 397.019531 1114.96875 396.121094 1115.625 395.234375 C 1116.28125 394.347656 1116.960938 393.476562 1117.660156 392.625 C 1118.359375 391.769531 1119.082031 390.933594 1119.820312 390.117188 C 1120.5625 389.300781 1121.324219 388.5 1122.101562 387.71875 C 1122.882812 386.9375 1123.683594 386.179688 1124.5 385.4375 C 1125.316406 384.695312 1126.152344 383.976562 1127.003906 383.273438 C 1127.859375 382.574219 1128.726562 381.894531 1129.613281 381.238281 C 1130.5 380.582031 1131.402344 379.945312 1132.320312 379.332031 C 1133.238281 378.71875 1134.167969 378.128906 1135.113281 377.5625 C 1136.0625 376.996094 1137.019531 376.449219 1137.992188 375.929688 C 1138.96875 375.410156 1139.953125 374.914062 1140.949219 374.441406 C 1141.945312 373.96875 1142.957031 373.523438 1143.972656 373.101562 C 1144.992188 372.679688 1146.023438 372.28125 1147.0625 371.910156 C 1148.101562 371.539062 1149.148438 371.191406 1150.203125 370.871094 C 1151.257812 370.550781 1152.324219 370.257812 1153.394531 369.988281 C 1154.464844 369.71875 1155.539062 369.476562 1156.621094 369.261719 C 1157.703125 369.046875 1158.789062 368.859375 1159.882812 368.695312 C 1160.972656 368.535156 1162.066406 368.398438 1163.167969 368.292969 C 1164.265625 368.183594 1165.363281 368.101562 1166.464844 368.046875 C 1167.566406 367.992188 1168.671875 367.96875 1169.773438 367.96875 C 1170.878906 367.96875 1171.980469 367.992188 1173.082031 368.046875 C 1174.183594 368.101562 1175.285156 368.183594 1176.382812 368.292969 C 1177.480469 368.398438 1178.574219 368.535156 1179.667969 368.695312 C 1180.757812 368.859375 1181.84375 369.046875 1182.925781 369.261719 C 1184.007812 369.476562 1185.085938 369.71875 1186.15625 369.988281 C 1187.226562 370.257812 1188.289062 370.550781 1189.34375 370.871094 C 1190.398438 371.191406 1191.449219 371.539062 1192.488281 371.910156 C 1193.523438 372.28125 1194.554688 372.679688 1195.574219 373.101562 C 1196.59375 373.523438 1197.601562 373.96875 1198.597656 374.441406 C 1199.597656 374.914062 1200.582031 375.410156 1201.554688 375.929688 C 1202.527344 376.449219 1203.488281 376.996094 1204.433594 377.5625 C 1205.378906 378.128906 1206.3125 378.71875 1207.230469 379.332031 C 1208.148438 379.945312 1209.046875 380.582031 1209.933594 381.238281 C 1210.820312 381.894531 1211.691406 382.574219 1212.542969 383.273438 C 1213.394531 383.976562 1214.230469 384.695312 1215.050781 385.4375 C 1215.867188 386.179688 1216.664062 386.9375 1217.445312 387.71875 C 1218.226562 388.5 1218.984375 389.300781 1219.726562 390.117188 C 1220.46875 390.933594 1221.1875 391.769531 1221.886719 392.625 C 1222.589844 393.476562 1223.265625 394.347656 1223.925781 395.234375 C 1224.582031 396.121094 1225.214844 397.019531 1225.828125 397.9375 C 1226.441406 398.855469 1227.03125 399.789062 1227.601562 400.734375 C 1228.167969 401.683594 1228.710938 402.640625 1229.230469 403.617188 C 1229.75 404.589844 1230.246094 405.574219 1230.71875 406.570312 C 1231.191406 407.570312 1231.636719 408.578125 1232.058594 409.597656 C 1232.480469 410.617188 1232.878906 411.648438 1233.25 412.6875 C 1233.621094 413.726562 1233.96875 414.773438 1234.289062 415.828125 C 1234.609375 416.886719 1234.902344 417.949219 1235.171875 419.019531 C 1235.4375 420.089844 1235.679688 421.167969 1235.894531 422.25 C 1236.109375 423.332031 1236.300781 424.417969 1236.460938 425.511719 C 1236.625 426.601562 1236.757812 427.699219 1236.867188 428.796875 C 1236.976562 429.894531 1237.054688 430.996094 1237.109375 432.097656 C 1237.164062 433.199219 1237.191406 434.300781 1237.191406 435.40625 Z M 1237.191406 435.40625 " fill-opacity="1" fill-rule="nonzero"/></g></svg>